PathFileType	4	(X/Y/Z)	Patient4_TMGait_0pt3_01_left_06.trc.trc
DataRate	CameraRate	NumFrames	NumMarkers	Units	OrigDataRate	OrigDataStartFrame	OrigNumFrames
51.282051282051	51.282051282051	4	33	mm	51.282051282051	18	       141
Frame#	Time	Sacral			L.Shoulder			Chest			R.Shoulder			Neck			R.ASIS			L.ASIS			R.Thigh.Superior			R.Thigh.Lateral			R.Thigh.Inferior			R.Patella			L.Thigh.Superior			L.Thigh.Lateral			L.Thigh.Inferior			L.Patella			L.Shank.Superior			L.Shank.Lateral			L.Shank.Inferior			R.Shank.Superior			R.Shank.Lateral			R.Shank.Inferior			R.Heel			R.Midfoot.Superior			R.Midfoot.Lateral			R.Toe			L.Heel			L.Midfoot.Lateral			L.Midfoot.Superior			L.Toe			L.Elbow			L.Wrist			R.Elbow			R.Wrist			
		X1	Y1	Z1	X2	Y2	Z2	X3	Y3	Z3	X4	Y4	Z4	X5	Y5	Z5	X6	Y6	Z6	X7	Y7	Z7	X8	Y8	Z8	X9	Y9	Z9	X10	Y10	Z10	X11	Y11	Z11	X12	Y12	Z12	X13	Y13	Z13	X14	Y14	Z14	X15	Y15	Z15	X16	Y16	Z16	X17	Y17	Z17	X18	Y18	Z18	X19	Y19	Z19	X20	Y20	Z20	X21	Y21	Z21	X22	Y22	Z22	X23	Y23	Z23	X24	Y24	Z24	X25	Y25	Z25	X26	Y26	Z26	X27	Y27	Z27	X28	Y28	Z28	X29	Y29	Z29	X30	Y30	Z30	X31	Y31	Z31	X32	Y32	Z32	X33	Y33	Z33	

18	10.881500000000	807.890469762834	992.885912564538	616.779620599784	968.814795821647	1416.332971594741	411.622458673970	1088.503757369952	1350.439230088780	561.437225400831	1028.041339681225	1430.829252996215	741.285211128977	976.710475869926	1483.076616058137	567.779237868577	1047.384910945727	929.430847228107	710.976676683041	1008.727083992506	953.812520411241	438.741279150032	1075.319540524941	724.795511086143	667.986994899621	994.014159134222	612.509990930109	724.743780382143	1061.852820354032	562.764047173055	636.562800980119	1056.387754379017	467.607607708977	638.669227068753	1095.406126206714	775.203838894611	470.589436239915	1058.435840709585	648.879436973813	386.084601397518	1158.166293246847	590.623292052990	454.527233501599	1186.406178513153	519.700010021673	445.259567834830	1157.953784565206	445.845302926674	427.897787833128	1073.386745758824	333.005244644229	364.534121951757	1140.313704651761	216.547662991603	413.752409328933	1007.536037624990	383.357858032301	642.977667144447	918.070151957218	291.835204777602	700.886120341040	937.846958946981	194.723868618371	633.755886102069	777.386796753548	44.857286870140	598.086807326599	947.973163368637	96.360271677108	641.757719572387	856.277455006679	37.993729120362	676.711843356289	1064.809161925319	41.381103226011	678.405751172098	1028.985125341564	45.827526989906	435.881077370895	1104.463386769665	51.224845302048	357.522672391868	1182.097155264918	119.540128420901	386.703293011528	1312.531983113482	80.639155082759	358.228443633782	867.320698928053	1071.242101469653	324.286480299966	869.470200989728	811.536805390263	324.770883576902	1139.397260805695	1109.605598685176	864.952542098939	1386.337223714946	1121.000592272375	805.544396700400	
19	10.901000000000	808.739447083755	995.232040284303	616.896059184880	967.631616451310	1417.772152424846	409.702076168524	1089.491137967229	1351.621983076481	557.693353316238	1031.993185424927	1432.566528396073	738.181871566995	977.770163501458	1484.441721227602	565.463955694560	1048.403233574077	930.197447343697	708.692127898955	1007.646192721533	954.961417120122	436.738699121113	1072.309333453193	724.467274069179	666.298715943674	989.303793000488	613.626145931494	724.105181575782	1055.559867888814	562.584020967103	635.751934692407	1048.609968903301	468.104007314727	638.130028186465	1092.519217547485	774.595816018343	467.902886420133	1052.872570863086	648.727936525969	383.785662411214	1152.118776956936	589.326037198548	451.447490270038	1179.930123073922	519.982123469208	443.001982591893	1153.911050248017	446.534266395167	426.072528222721	1074.109377147369	330.316779207005	362.252939101910	1144.854475497877	216.486891084402	412.685739120649	1000.246545774268	384.150181975924	642.774773278256	911.297977443078	292.408571226447	701.038982968238	931.355669695091	195.240512964335	633.847269084528	771.402160656495	44.906976042844	598.250473442051	942.018044682324	96.394909835907	641.934309045869	850.340226567930	37.958221192727	676.810722778069	1058.876564721066	41.391435542058	678.401605633519	1039.024150453860	42.809865347296	434.238127934178	1115.617723447186	49.256379613454	356.901095683745	1191.019514516343	119.928943294860	386.650048643936	1323.087375837631	83.975510468924	360.561997749301	855.236921399660	1076.776949037698	322.588621335031	849.807410809815	817.491612387056	323.002249186968	1151.573892375991	1115.406775148640	860.159527986309	1394.194898655392	1143.846595904691	792.513670089925	
20	10.920500000000	809.718285153874	997.120644210818	616.563940862854	966.862102608579	1418.831159684978	407.524685207712	1090.607006849432	1352.414379631897	553.882369106091	1035.711032258787	1433.872006781998	734.860493635923	978.934678439656	1485.407413802307	562.957915191687	1049.522948432738	930.644912636041	706.252435785451	1006.871324317100	955.636908288233	434.560970643924	1069.632172254454	723.952803261430	664.542014414180	984.977181496159	614.515086141978	723.342475294739	1049.755743228968	562.220003201588	634.916144921053	1041.344776967096	468.387691278128	637.560313873965	1089.893266814813	773.368191089987	464.875576046686	1047.142041693949	647.946025435794	381.438580045337	1146.104614286326	587.468837026013	448.212284534853	1173.179085324399	519.396249190205	440.590783952594	1149.199722275663	446.443455702242	424.045896084622	1073.211585395923	327.554255580193	360.295144408239	1147.198909456408	216.070378534611	411.612569552019	993.396566351449	384.718869260621	642.503509264058	904.811137600917	292.881179341055	701.103653915124	925.039908852695	195.633080586813	633.903394043839	765.418687640496	44.939121804164	598.389547453792	936.067846987008	96.410126164325	642.075208734348	844.400684577568	37.906586778770	676.895332304166	1052.941465919346	41.404022528283	678.397105884986	1045.907051093943	40.524425602101	433.200063248122	1123.174114129570	47.547971958404	356.477569575748	1196.975506696879	119.834480665936	386.413030458119	1330.106271060922	85.857996804843	361.944897102483	844.616532728451	1081.910520277669	320.840948408621	832.318663488554	823.144342094464	321.309197215124	1163.408945959654	1120.960027447439	855.035030735979	1400.586330136315	1165.618042807525	779.858254943753	
21	10.940000000000	810.813860150442	998.451503878959	615.803765090505	966.460415921522	1419.419382527720	405.070216089539	1091.816464404214	1352.751135924244	549.998496816476	1039.153826064449	1434.671586282700	731.337407139695	980.181040573660	1485.906577100708	560.261423752157	1050.761879157678	930.714610093515	703.654768012625	1006.366563168290	955.785961525221	432.211460610963	1067.406271862415	723.210821056824	662.684690059687	981.194214424732	615.100091028868	722.403331256121	1044.611373013205	561.623535845970	633.981963587343	1034.779112785935	468.386707354699	636.870090601999	1087.611197804848	771.595870976322	461.542326158536	1041.473193986941	646.587645071844	379.079448279922	1140.385273065597	585.193334695282	444.857629840529	1166.459920748928	518.043448706313	438.039203179307	1144.125350856913	445.610835789066	421.826455388726	1070.927616819019	324.705030497913	358.630631615998	1147.579948408536	215.205108724475	410.504071296425	987.126852131980	384.994796150132	642.095397073298	898.721157574617	293.219648851887	701.033480248149	918.959072482577	195.861190476917	633.888231335629	759.443428982080	44.948987366943	598.504265054988	930.129586228405	96.402680951711	642.165474738379	838.464273253058	37.841611484900	676.967198113266	1047.007539912824	41.415947698084	678.392019582681	1049.751752790834	38.834330139271	432.706885938918	1127.270103790421	45.933056475165	356.191009133263	1200.163875850496	119.087139299736	385.960798019040	1333.828185498483	86.057558142422	362.347560781200	835.543466123519	1086.376079902470	319.087877819558	817.012623572892	828.149011298898	319.692539913748	1174.776769935420	1126.090635166070	849.603569758690	1405.643449719590	1185.939779356913	767.680541655005	
